<svg width="100" height="100" viewBox="0 0 100 100" fill="none" xmlns="http://www.w3.org/2000/svg">
<path d="M49.6641 3.38135C33.8344 3.38135 21.0266 16.1712 21.0266 31.9763V46.0937H30.7129V32.5987C30.7129 22.1187 39.2031 13.6169 49.6641 13.6169C60.1256 13.6169 68.6157 22.356 68.6157 32.5985V46.0937H78.302V31.9765C78.302 16.5749 65.4666 3.38135 49.6643 3.38135H49.6641ZM16.6323 49.7437C13.7787 54.202 12.1705 59.3429 12.1705 64.7397C12.1705 81.9972 28.7662 96.2827 49.6647 96.2827C70.5627 96.2827 87.1584 81.9972 87.1584 64.7397C87.1584 59.3423 85.5451 54.2026 82.6907 49.7437H16.6319H16.6323ZM49.6094 54.4188C53.9727 54.4188 57.5928 57.9228 57.5928 62.286C57.5928 65.5587 55.5225 68.3857 52.6856 69.586L59.0762 88.7513H40.2528L46.5272 69.5862C43.6901 68.386 41.7358 65.5589 41.7358 62.2866C41.7358 57.9237 45.2459 54.4194 49.6092 54.4194L49.6094 54.4188Z" fill="white"/>
</svg>
