<svg width="100" height="100" viewBox="0 0 100 100" fill="none" xmlns="http://www.w3.org/2000/svg">
<path d="M53.5496 8.12578C53.0031 8.12383 52.4606 8.13672 51.9223 8.16387C33.0414 9.11113 17.2778 25.1424 9.37502 45.6639C1.47229 66.1834 9.55354 92.533 27.0188 92.0467C44.4836 91.5584 30.552 72.5936 39.809 63.5076C44.5639 58.8396 51.3035 60.4842 58.2088 62.4061L54.7713 57.9178L53.951 56.8475C53.6815 56.8592 53.4061 56.8674 53.119 56.865C51.5096 56.8525 49.6385 56.7596 48.1873 55.4301C45.4744 52.9437 45.3748 49.316 45.4373 46.073C45.4998 42.8299 45.6561 39.7498 44.6463 37.7553L43.533 35.56L45.993 35.4877C46.1973 35.4818 46.4026 35.4779 46.6082 35.4773C49.6942 35.4631 52.9176 36.0195 55.7711 37.241C58.8149 38.5437 61.4848 40.6473 62.8324 43.6967C63.6488 45.5443 63.5483 47.6256 62.9541 49.5107C62.8299 49.902 62.6834 50.2865 62.5166 50.6611L73.2393 64.6611C74.4522 64.4561 75.619 64.0877 76.7244 63.5049C85.7264 58.7562 95.7309 48.3271 93.9647 38.3037C91.0662 21.8525 70.4881 8.1748 53.5467 8.12402L53.5496 8.12578ZM65.4227 15.9164C66.7083 15.973 67.9226 16.4516 68.9213 17.2953C69.6059 17.8737 70.1726 18.6097 70.5889 19.4612C71.0052 20.3128 71.2631 21.2633 71.3477 22.2585C71.4323 23.2536 71.3421 24.2739 71.0821 25.2611C70.8222 26.2484 70.3976 27.1831 69.8326 28.0121C69.2677 28.8411 68.5734 29.5481 67.7894 30.0926C67.0055 30.6372 66.1472 31.0086 65.2635 31.1858C64.3799 31.363 63.4883 31.3425 62.6396 31.1253C61.7909 30.9082 61.0016 30.4987 60.317 29.9203C59.6324 29.3419 59.0658 28.6059 58.6494 27.7543C58.2331 26.9028 57.9753 25.9522 57.8907 24.9571C57.8061 23.962 57.8964 22.9417 58.1563 21.9544C58.4163 20.9672 58.8409 20.0325 59.4059 19.2035C60.1267 18.1459 61.0553 17.2907 62.1066 16.7163C63.1579 16.142 64.2981 15.8669 65.4225 15.9164H65.4227ZM42.0145 16.7889C43.5163 16.8334 45.0393 17.5687 46.2882 18.8521C47.537 20.1354 48.4225 21.8753 48.7729 23.7342C49.1475 25.7227 48.8802 27.6899 48.03 29.203C47.1797 30.7161 45.8161 31.6512 44.2391 31.8025C43.4581 31.8775 42.6483 31.7578 41.8558 31.4503C41.0633 31.1427 40.3037 30.6533 39.6204 30.01C38.937 29.3667 38.3433 28.582 37.8731 27.7009C37.4029 26.8198 37.0655 25.8595 36.8801 24.8748C36.5055 22.8863 36.7727 20.9191 37.623 19.406C38.4732 17.8929 39.8369 16.9578 41.4139 16.8064C41.6118 16.7875 41.8119 16.7809 42.0135 16.7869L42.0145 16.7889ZM24.7625 32.3318C26.5346 32.3319 28.3154 33.0119 29.713 34.2225C31.1107 35.433 32.0109 37.0748 32.2156 38.7869C32.4197 40.4989 31.9116 42.1407 30.803 43.3512C29.6945 44.5617 28.0763 45.2418 26.3043 45.242C24.5321 45.2422 22.7512 44.5622 21.3533 43.3516C19.9555 42.1411 19.0551 40.4991 18.8504 38.7869C18.7491 37.939 18.8216 37.0993 19.0639 36.3159C19.3062 35.5325 19.7135 34.8207 20.2625 34.221C20.8115 33.6214 21.4914 33.1458 22.2636 32.8213C23.0357 32.4968 23.8848 32.3298 24.7625 32.3299V32.3318ZM82.2766 33.2031C83.8178 33.2783 85.2228 33.9376 86.2629 35.0738C86.8681 35.7348 87.3335 36.5396 87.6325 37.4422C87.9314 38.3448 88.0581 39.3275 88.0052 40.3343C87.9524 41.341 87.721 42.3521 87.3244 43.3097C86.9278 44.2674 86.3737 45.1529 85.6938 45.9156C85.0138 46.6784 84.2213 47.3035 83.3615 47.7552C82.5017 48.2069 81.5914 48.4764 80.6826 48.5484C79.7738 48.6203 78.8844 48.4932 78.065 48.1744C77.2457 47.8556 76.5125 47.3513 75.9072 46.6902C75.3021 46.0292 74.8367 45.2244 74.5378 44.3218C74.2389 43.4192 74.1123 42.4364 74.1652 41.4297C74.2181 40.4229 74.4494 39.4119 74.846 38.4542C75.2427 37.4966 75.7968 36.6112 76.4768 35.8484C77.2568 34.9734 78.1837 34.2809 79.1881 33.8229C80.1925 33.3648 81.2486 33.1529 82.2774 33.2031H82.2766ZM48.2625 38.6621C48.8449 41.157 48.611 43.7787 48.5649 46.1377C48.5043 49.2418 48.7082 51.6689 50.3012 53.1293C50.5336 53.3422 51.8672 53.7332 53.1442 53.7432C53.7824 53.7482 54.402 53.7002 54.8469 53.6387C55.0545 53.6102 55.2129 53.5789 55.3123 53.5557L57.8553 51.7271L57.8592 51.7244C58.7303 51.1053 59.5623 49.8943 59.9783 48.574C60.3944 47.2537 60.3826 45.8768 59.9783 44.9627C59.035 42.8279 57.0799 41.201 54.5448 40.117C52.6444 39.3025 50.4432 38.8182 48.2615 38.6619L48.2625 38.6621ZM61.4373 55.0309L58.6307 57.1793L85.7364 92.5723L88.541 90.4242L61.4369 55.0316L61.4373 55.0309ZM22.3065 66.7809C24.464 66.7808 26.6321 67.7654 28.3339 69.5181C30.0356 71.2707 31.1316 73.6479 31.3807 76.1266C31.504 77.354 31.4156 78.5694 31.1206 79.7034C30.8256 80.8373 30.3298 81.8677 29.6614 82.7355C28.9931 83.6034 28.1653 84.2918 27.2254 84.7615C26.2855 85.2311 25.2518 85.4728 24.1834 85.4727C22.0258 85.4727 19.8576 84.488 18.1559 82.7353C16.4542 80.9826 15.3582 78.6053 15.1092 76.1266C14.986 74.8992 15.0744 73.6838 15.3694 72.5499C15.6644 71.416 16.1602 70.3857 16.8286 69.5178C17.4969 68.65 18.3246 67.9616 19.2645 67.492C20.2044 67.0224 21.2381 66.7808 22.3065 66.7809Z" fill="white"/>
</svg>
