<svg width="100" height="100" viewBox="0 0 100 100" fill="none" xmlns="http://www.w3.org/2000/svg">
<path d="M50 10.6016C25.6635 10.6016 5.85938 30.4059 5.85938 54.7422C5.85938 64.0906 8.78418 72.7682 13.7627 79.9133L19.5811 76.0344C16.224 71.2404 13.974 65.6121 13.1951 59.5154H18.75V55.9998H12.9131C12.8994 55.5818 12.8906 55.1631 12.8906 54.742C12.8906 45.8791 15.9797 37.7557 21.1398 31.383L24.5383 34.7814L27.024 32.2957L23.4824 28.7543C29.8311 22.2768 38.542 18.125 48.2422 17.6754V23.3824H51.7578V17.6758C61.458 18.1254 70.1689 22.2773 76.5176 28.7549L72.976 32.2963L75.4615 34.782L78.86 31.3836C84.0201 37.7566 87.1094 45.8797 87.1094 54.743C87.1094 55.1637 87.1008 55.5828 87.0869 56.0002H81.25V59.5158H86.8047C86.026 65.6123 83.776 71.2404 80.4191 76.0344L86.2375 79.9133C91.2158 72.7684 94.1406 64.091 94.1406 54.7426C94.1406 30.4063 74.3365 10.602 50 10.602V10.6016ZM53.0918 23.5371C56.6158 25.481 59.7336 28.2248 62.2437 31.5912C64.7537 34.9575 66.6002 38.8716 67.6637 43.0805L77.4227 39.6492C77.1545 39.1856 76.8745 38.7289 76.5828 38.2797L75.5799 39.2861L69.6486 33.3701L68.5236 32.2479L70.0568 30.71C65.2509 26.6688 59.3389 24.1692 53.0916 23.5369L53.0918 23.5371ZM83.5898 41.0848L49.3453 52.9207C46.9736 53.2457 45.1172 55.3037 45.1172 57.7578C45.1172 60.4336 47.3242 62.6406 50 62.6406C51.3223 62.6406 52.5293 62.1008 53.4127 61.2328L83.5898 41.0848ZM80.3646 47.3977L68.5066 55.3508C68.0394 59.5221 66.8195 63.5458 64.92 67.1811C63.0205 70.8164 60.4805 73.9885 57.452 76.5076H72.3068C75.978 72.7654 78.6486 68.1597 80.073 63.1147H77.8281V52.8578H81.1527C81.0515 51.018 80.7878 49.1908 80.3646 47.3975V47.3977ZM25 82.3672V89.3984H75V82.3672H25Z" fill="white"/>
</svg>
